PathFileType	4	(X/Y/Z)	/Users/itak/Documents/Research/Walk-IL/dataset/trc/00458_00167.trc
DataRate	CameraRate	NumFrames	NumMarkers	Units	OrigDataRate	OrigDataStartFrame	OrigNumFrames
100.000000	100.000000	4	53	mm	100.000000	129	517
Frame#	Time	RPSI			LPSI			L3			STRN			T10			C7			CLAV			RBAK			LBAK			LSHO			LUPA			LAEL			LAOL			LWTS			LWPS			LFRA			LIFD			LHPS			LHTS			RSHO			RUPA			RAEL			RAOL			RWTS			RWPS			RFRA			RIFD			RHTS			RHPS			RBHD			LFHD			RFHD			LBHD			LHIP			RHIP			RASI			LASI			LKNE			LTHI			LANK			LTIP			LTOE			LMT1			LMT5			LHEE			RKNE			RTHI			RANK			RTIP			RTOE			RMT1			RMT5			RHEE			
		X1	Y1	Z1	X2	Y2	Z2	X3	Y3	Z3	X4	Y4	Z4	X5	Y5	Z5	X6	Y6	Z6	X7	Y7	Z7	X8	Y8	Z8	X9	Y9	Z9	X10	Y10	Z10	X11	Y11	Z11	X12	Y12	Z12	X13	Y13	Z13	X14	Y14	Z14	X15	Y15	Z15	X16	Y16	Z16	X17	Y17	Z17	X18	Y18	Z18	X19	Y19	Z19	X20	Y20	Z20	X21	Y21	Z21	X22	Y22	Z22	X23	Y23	Z23	X24	Y24	Z24	X25	Y25	Z25	X26	Y26	Z26	X27	Y27	Z27	X28	Y28	Z28	X29	Y29	Z29	X30	Y30	Z30	X31	Y31	Z31	X32	Y32	Z32	X33	Y33	Z33	X34	Y34	Z34	X35	Y35	Z35	X36	Y36	Z36	X37	Y37	Z37	X38	Y38	Z38	X39	Y39	Z39	X40	Y40	Z40	X41	Y41	Z41	X42	Y42	Z42	X43	Y43	Z43	X44	Y44	Z44	X45	Y45	Z45	X46	Y46	Z46	X47	Y47	Z47	X48	Y48	Z48	X49	Y49	Z49	X50	Y50	Z50	X51	Y51	Z51	X52	Y52	Z52	X53	Y53	Z53	

130	1.29	-1049.952026367188	919.9885864257812	-532.9898681640625	-1106.427978515625	931.4310302734375	-662.298095703125	-1061.795043945312	1023.654235839844	-601.2353515625	-797.2803955078125	1203.376708984375	-713.09228515625	-1070.609985351562	1147.589599609375	-607.3984985351562	-982.85693359375	1409.792602539062	-618.739501953125	-822.9710083007812	1318.498168945312	-699.1968383789062	-1020.326171875	1289.44140625	-513.5175170898438	-1052.982299804688	1371.414794921875	-700.0690307617188	-986.1712036132812	1392.784057617188	-811.9798583984375	-1040.220092773438	1279.81591796875	-902.4974975585938	-1054.201049804688	1063.979370117188	-941.8688354492188	-1107.501708984375	1056.596557617188	-853.0689086914062	-999.9847412109375	849.228759765625	-930.5244750976562	-1065.9697265625	845.7482299804688	-966.8422241210938	-1052.806640625	975.1687622070312	-958.68505859375	-1028.655883789062	682.4358520507812	-944.5084228515625	-1072.217529296875	767.91015625	-973.5858764648438	-1003.669494628906	762.8088989257812	-949.6113891601562	-870.2674560546875	1367.606689453125	-491.661376953125	-873.9893798828125	1305.516967773438	-416.1145324707031	-892.2005004882812	1023.209045410156	-356.24755859375	-953.8302612304688	1014.456665039062	-383.2779541015625	-837.9617309570312	804.1603393554688	-418.457275390625	-887.8617553710938	800.9635620117188	-345.0126342773438	-894.294677734375	965.0130004882812	-345.4079895019531	-863.3279418945312	649.5399780273438	-403.6581115722656	-839.2357788085938	704.791259765625	-406.9825439453125	-888.1021728515625	712.9776000976562	-348.7941589355469	-863.3807373046875	1603.23583984375	-565.7811279296875	-757.1035766601562	1601.215087890625	-743.1625366210938	-734.316650390625	1598.926513671875	-614.57958984375	-910.4379272460938	1613.984985351562	-737.7642822265625	-1047.442260742188	826.1901245117188	-824.13037109375	-870.7188720703125	820.4763793945312	-464.0033569335938	-815.9624633789062	870.3696899414062	-566.7804565429688	-920.4766235351562	854.4915771484375	-801.181396484375	-1108.83056640625	419.5926818847656	-735.123779296875	-1061.934204101562	562.1608276367188	-786.4051513671875	-1302.393310546875	53.31549453735352	-630.8690185546875	-1168.152954101562	278.6382751464844	-714.7695922851562	-1058.2177734375	41.2493896484375	-622.581298828125	-1125.111694335938	55.57322311401367	-581.29052734375	-1160.302124023438	41.80723190307617	-689.4867553710938	-1324.6640625	75.70285797119141	-557.175537109375	-745.5224609375	453.9991760253906	-571.6633911132812	-874.3388671875	694.3798828125	-497.5042419433594	-628.5037231445312	39.06818771362305	-642.0145874023438	-692.59814453125	327.3837890625	-585.6345825195312	-459.4787902832031	134.3980712890625	-744.0035400390625	-527.6234130859375	114.5420837402344	-762.4375610351562	-505.8009033203125	83.57379913330078	-663.8346557617188	-700.8095703125	19.87972068786621	-670.504638671875	
131	1.3	-1041.3740234375	918.8324584960938	-534.7755126953125	-1098.159545898438	931.0054931640625	-663.8328857421875	-1053.01953125	1022.180236816406	-602.7667236328125	-788.6453857421875	1201.814331054688	-714.64892578125	-1061.841674804688	1146.099853515625	-608.4338989257812	-973.907958984375	1408.267211914062	-619.2423706054688	-814.1148681640625	1316.968139648438	-700.3841552734375	-1011.125549316406	1287.5244140625	-514.3997802734375	-1044.249755859375	1370.175415039062	-700.4560546875	-977.7421875	1391.696411132812	-812.5153198242188	-1032.250366210938	1278.797729492188	-902.94775390625	-1046.35986328125	1063.085083007812	-942.690185546875	-1099.30908203125	1055.58349609375	-853.7175903320312	-992.4886474609375	848.2427978515625	-931.851318359375	-1058.49462890625	844.8712768554688	-968.0703735351562	-1045.17333984375	974.3175659179688	-959.6738891601562	-1021.570068359375	681.5035400390625	-946.1482543945312	-1064.997314453125	767.1517944335938	-974.888671875	-996.3602905273438	761.8465576171875	-951.161376953125	-861.0789184570312	1365.678344726562	-492.5643005371094	-864.8662109375	1303.475952148438	-417.1006774902344	-884.0553588867188	1021.22021484375	-357.616943359375	-945.6364135742188	1012.7109375	-384.8211059570312	-830.7794189453125	801.949462890625	-419.9285888671875	-880.7200317382812	798.9736938476562	-346.4937744140625	-886.4259643554688	963.0419921875	-346.75439453125	-856.8397216796875	647.4641723632812	-405.1813049316406	-832.5103759765625	702.6162109375	-408.4864501953125	-881.3707275390625	710.9797973632812	-350.29931640625	-855.32666015625	1601.699951171875	-566.0155639648438	-748.5440673828125	1600.443481445312	-743.064208984375	-726.09619140625	1597.887817382812	-614.4437866210938	-901.92578125	1612.717651367188	-738.0066528320312	-1040.31884765625	825.6522216796875	-826.035888671875	-862.8475341796875	818.0276489257812	-466.3173522949219	-807.6126708984375	867.7476806640625	-569.1199951171875	-913.0009765625	853.0906372070312	-803.4183349609375	-1104.983764648438	419.64111328125	-736.8377075195312	-1057.002075195312	561.8529052734375	-788.3508911132812	-1301.902221679688	55.04226303100586	-631.3697509765625	-1165.76416015625	279.2703247070312	-716.1991577148438	-1058.140747070312	41.2100944519043	-622.6354370117188	-1124.856689453125	55.90779876708984	-581.7154541015625	-1160.082275390625	41.70095825195312	-689.6552734375	-1324.139404296875	78.57343292236328	-557.9450073242188	-740.7582397460938	450.6287841796875	-573.5441284179688	-865.9244995117188	691.717041015625	-500.2197265625	-622.5306396484375	37.68887329101562	-645.4039306640625	-687.7327270507812	324.7796936035156	-587.8934326171875	-452.2579040527344	132.0350952148438	-745.655517578125	-520.3421020507812	112.5978698730469	-764.7460327148438	-499.5441589355469	81.15262603759766	-666.0986328125	-694.8147583007812	19.16547966003418	-674.5206909179688	
132	1.31	-1032.744262695312	917.7916259765625	-536.6493530273438	-1089.718505859375	930.61767578125	-665.51904296875	-1044.114379882812	1020.806945800781	-604.4319458007812	-779.7689208984375	1200.369384765625	-716.1337890625	-1052.912475585938	1144.718994140625	-609.5201416015625	-964.748046875	1406.855834960938	-619.6812744140625	-805.033935546875	1315.560913085938	-701.502685546875	-1001.726196289062	1285.709594726562	-515.2391967773438	-1035.316772460938	1369.067260742188	-700.7752075195312	-969.0982666015625	1390.724609375	-813.0010375976562	-1024.1103515625	1277.8720703125	-903.3060302734375	-1038.358764648438	1062.296752929688	-943.4299926757812	-1090.865478515625	1054.659423828125	-854.267333984375	-984.73681640625	847.3924560546875	-933.1735229492188	-1050.763916015625	844.118408203125	-969.2352905273438	-1037.33984375	973.5759887695312	-960.60400390625	-1014.176208496094	680.7081298828125	-947.7731323242188	-1057.51220703125	766.516357421875	-976.1024780273438	-988.7762451171875	761.0377807617188	-952.7064208984375	-851.6803588867188	1363.820190429688	-493.4002075195312	-855.5137329101562	1301.483642578125	-418.0379943847656	-875.6246337890625	1019.276123046875	-358.9748840332031	-937.1914672851562	1011.006591796875	-386.2661437988281	-823.302001953125	799.8154907226562	-421.4568176269531	-873.2364501953125	797.0355224609375	-348.0158081054688	-878.2338256835938	961.1080932617188	-348.1353454589844	-850.0166015625	645.4615478515625	-406.8065795898438	-825.509033203125	700.538330078125	-410.10546875	-874.287353515625	709.0386352539062	-351.8790283203125	-847.1165161132812	1600.276489257812	-566.1597900390625	-739.8062133789062	1599.842163085938	-742.8521728515625	-717.7124633789062	1597.0126953125	-614.1953735351562	-893.2279052734375	1611.570068359375	-738.1624145507812	-1032.877075195312	825.1578369140625	-828.0294799804688	-854.8654174804688	815.9434814453125	-468.6162719726562	-799.174072265625	865.4586791992188	-571.426025390625	-905.2552490234375	851.7953491210938	-805.6771240234375	-1100.836547851562	419.7648010253906	-738.6879272460938	-1051.74072265625	561.6156616210938	-790.4193725585938	-1301.281494140625	56.89324569702148	-632.044189453125	-1163.15771484375	280.0291748046875	-717.7843627929688	-1058.0888671875	41.17633056640625	-622.692138671875	-1124.612182617188	56.29906463623047	-582.1866455078125	-1159.822021484375	41.58213424682617	-689.8564453125	-1323.581787109375	81.74521636962891	-558.9774169921875	-735.397705078125	447.743408203125	-575.5014038085938	-857.419677734375	689.3876342773438	-502.9012756347656	-618.335693359375	36.2625732421875	-648.2107543945312	-682.7971801757812	322.2132873535156	-590.1870727539062	-445.9396667480469	127.3096160888672	-746.7444458007812	-514.0807495117188	108.9205169677734	-766.511474609375	-494.7160034179688	77.274169921875	-667.6737060546875	-690.83251953125	19.05199241638184	-677.75537109375	
133	1.32	-1024.103149414062	916.9193725585938	-538.6361694335938	-1081.130615234375	930.2702026367188	-667.3959350585938	-1035.107055664062	1019.581604003906	-606.2603149414062	-770.6524658203125	1199.089111328125	-717.5282592773438	-1043.839965820312	1143.49853515625	-610.6759033203125	-955.3839111328125	1405.609252929688	-620.0628051757812	-795.732421875	1314.3203125	-702.5419921875	-992.1553344726562	1284.052001953125	-516.0386962890625	-1026.188354492188	1368.140869140625	-701.0444946289062	-960.2236938476562	1389.911010742188	-813.4541015625	-1015.766723632812	1277.06884765625	-903.5836791992188	-1030.206787109375	1061.6474609375	-944.0914306640625	-1082.171875	1053.864379882812	-854.7200317382812	-976.72607421875	846.7135620117188	-934.4846801757812	-1042.7763671875	843.52734375	-970.3230590820312	-1029.299438476562	972.9772338867188	-961.4766845703125	-1006.467102050781	680.091064453125	-949.3622436523438	-1049.759399414062	766.0320434570312	-977.2129516601562	-980.9242553710938	760.4181518554688	-954.2391967773438	-842.0845336914062	1362.068359375	-494.1629943847656	-845.9459228515625	1299.56689453125	-418.927734375	-866.9035034179688	1017.401245117188	-360.3299865722656	-928.4885864257812	1009.376831054688	-387.6239013671875	-815.525634765625	797.7868041992188	-423.0489501953125	-865.4011840820312	795.1759643554688	-349.5835266113281	-869.7183837890625	959.23583984375	-349.5551452636719	-842.8544921875	643.5601806640625	-408.5248718261719	-818.2486572265625	698.5764770507812	-411.8470458984375	-866.84326171875	707.1844482421875	-353.5288696289062	-838.73876953125	1599.00439453125	-566.215087890625	-730.8817749023438	1599.447387695312	-742.5269165039062	-709.1547241210938	1596.334594726562	-613.83251953125	-884.333251953125	1610.589477539062	-738.238037109375	-1025.095458984375	824.7188720703125	-830.129150390625	-846.8123168945312	814.3106689453125	-470.9009704589844	-790.6362915039062	863.6116333007812	-573.6761474609375	-897.2264404296875	850.6412963867188	-807.943359375	-1096.342651367188	419.9734497070312	-740.6591186523438	-1046.101318359375	561.4568481445312	-792.5962524414062	-1300.493774414062	58.88383865356445	-632.8749389648438	-1160.29052734375	280.9366760253906	-719.517578125	-1058.048217773438	41.14346694946289	-622.7569580078125	-1124.358154296875	56.7489013671875	-582.706787109375	-1159.531005859375	41.4531135559082	-690.0800170898438	-1322.946044921875	85.25607299804688	-560.2630615234375	-729.4940795898438	445.40234375	-577.5469360351562	-848.8136596679688	687.500244140625	-505.5262756347656	-615.5730590820312	35.02291488647461	-650.4813842773438	-677.703125	319.8434143066406	-592.5604858398438	-440.3003234863281	120.4753036499023	-747.5366821289062	-508.6118774414062	103.7208938598633	-767.9192504882812	-490.9743041992188	72.27694702148438	-668.7284545898438	-688.4594116210938	19.58740043640137	-680.2540283203125	
